<?xml version="1.0" standalone="no"?>
<!DOCTYPE svg PUBLIC "-//W3C//DTD SVG 20010904//EN"
 "http://www.w3.org/TR/2001/REC-SVG-20010904/DTD/svg10.dtd">
<svg version="1.0" xmlns="http://www.w3.org/2000/svg"
 width="1280.000000pt" height="777.000000pt" viewBox="0 0 1280.000000 777.000000"
 preserveAspectRatio="xMidYMid meet">
<g transform="translate(0.000000,777.000000) scale(0.100000,-0.100000)"
stroke="none">
<path d="M4555 7746 c-95 -31 -141 -56 -213 -116 -209 -174 -399 -586 -537
-1164 -77 -321 -161 -812 -209 -1220 -14 -115 -29 -213 -34 -218 -6 -6 -45 1
-98 17 -216 62 -466 90 -752 82 -224 -5 -359 -24 -552 -74 -74 -19 -144 -36
-154 -37 -21 -1 -33 31 -156 434 -344 1126 -714 1813 -1069 1989 -86 43 -140
54 -239 49 -75 -3 -99 -9 -163 -39 -122 -58 -292 -213 -349 -318 -35 -65 -36
-74 -10 -116 52 -84 204 -86 556 -9 l81 18 59 -29 c231 -112 497 -610 780
-1460 122 -367 204 -635 198 -649 -3 -6 -42 -31 -87 -56 -289 -159 -627 -478
-826 -779 -257 -389 -381 -815 -381 -1310 0 -369 76 -709 229 -1026 200 -412
546 -785 956 -1028 200 -119 367 -187 605 -247 176 -44 307 -61 521 -67 514
-15 927 92 1341 348 68 42 161 110 265 195 18 14 39 24 46 21 18 -7 46 -129
56 -240 8 -82 0 -245 -13 -265 -3 -5 -53 -36 -111 -67 -162 -89 -208 -144
-180 -213 20 -47 73 -62 222 -62 155 0 347 18 371 36 16 11 17 40 16 346 0
284 -4 359 -23 508 -12 96 -25 200 -28 231 l-6 56 67 93 c36 50 85 123 108
161 24 38 48 69 55 69 9 0 138 -86 226 -152 45 -34 70 -632 35 -850 l-16 -96
-115 -114 c-63 -62 -124 -132 -136 -155 -36 -72 -22 -154 31 -181 78 -41 147
-50 235 -32 26 5 106 19 176 32 111 19 131 25 144 45 13 20 16 71 16 326 1
295 -9 469 -38 712 -8 66 -15 123 -15 127 0 14 30 8 137 -27 136 -45 315 -82
476 -99 85 -8 132 -17 137 -26 22 -35 42 -243 37 -373 -7 -194 -17 -219 -122
-302 -111 -88 -166 -160 -173 -223 -12 -126 124 -159 452 -111 106 15 146 25
161 40 41 40 43 356 8 920 l-5 67 44 7 c259 39 411 76 564 136 59 23 110 37
114 33 11 -11 54 -185 70 -279 6 -38 10 -126 8 -195 l-3 -125 -50 -32 c-170
-110 -225 -168 -225 -234 0 -48 41 -85 107 -95 108 -16 494 38 521 72 11 15
12 43 7 134 -12 225 -59 484 -136 750 -21 74 -39 140 -39 147 0 11 176 148
203 159 7 2 44 -24 82 -57 224 -196 504 -375 767 -490 62 -26 115 -55 120 -63
18 -33 37 -202 27 -247 -14 -59 -29 -74 -139 -129 -208 -105 -271 -181 -225
-269 32 -62 169 -91 436 -91 184 0 178 -3 205 115 16 66 19 119 18 302 0 172
2 223 12 223 7 0 51 -9 97 -20 47 -11 154 -31 237 -44 83 -13 156 -28 160 -32
14 -15 32 -176 25 -229 -12 -93 -11 -92 -109 -139 -117 -57 -174 -99 -192
-142 -18 -43 -10 -77 27 -108 44 -37 124 -50 326 -50 158 -1 184 1 199 16 12
12 20 47 27 119 10 96 5 209 -20 462 l-5 57 128 0 c892 0 1672 293 2238 841
343 331 528 679 598 1122 37 236 26 447 -38 707 -118 479 -448 906 -969 1255
-549 368 -1273 550 -2013 507 -737 -44 -1286 -242 -1821 -658 -126 -97 -317
-285 -396 -388 -27 -36 -56 -65 -64 -65 -7 -1 -81 32 -165 73 -218 108 -417
169 -657 202 -172 24 -530 24 -694 0 -383 -56 -701 -186 -993 -407 -36 -27
-68 -49 -72 -49 -3 0 -33 42 -65 93 -218 338 -545 645 -893 837 -62 34 -115
66 -117 71 -3 4 4 104 15 221 96 975 291 1627 602 2014 95 118 146 154 289
203 254 88 349 150 349 229 0 70 -71 114 -245 153 -143 31 -188 32 -270 5z"/>
</g>
</svg>
